<svg id="Layer_1" data-name="Layer 1" xmlns="http://www.w3.org/2000/svg" viewBox="0 0 379.01 45.15"><defs><style>.cls-1{fill:#ff8d6a;}.cls-2{fill:#52d3f4;}.cls-3{fill:#9c2af3;}.cls-4{fill:#3d3de8;}.cls-5{fill:#f73dfc;}.cls-6{fill:#141667;}.cls-7{fill:#141667;}</style></defs><path class="cls-1" d="M67.51,40.69c0,4.38-2.84,5.77-6.31,3.09L46.53,32.45l21-16.53Z"/><path class="cls-2" d="M6.31,43.78C2.84,46.46,0,45.07,0,40.69V15.92L21,32.45Z"/><path class="cls-3" d="M46.53,32.45l-7.77,6.12a8.52,8.52,0,0,1-10,0L21,32.45l12.78-9.88Z"/><path class="cls-4" d="M6.31,1.36,33.75,22.57,21,32.45,0,15.92V4.46C0,.08,2.84-1.32,6.31,1.36Z"/><path class="cls-5" d="M61.2,1.36c3.47-2.68,6.31-1.28,6.31,3.1V15.92l-21,16.53L33.75,22.57Z"/><path class="cls-6" d="M124.12,34.4h-5.85V21.34L111.39,34.4h-2.78l-6.92-13.13V34.4H95.84V9.89h5.93L110,25.44l8.23-15.55h5.89Z"/><path class="cls-6" d="M147,34.4H141.1V32.94a8.28,8.28,0,0,1-5.71,2c-4.87,0-9-3.91-9-9.73s4.09-9.73,9-9.73a8.28,8.28,0,0,1,5.71,2V16H147Zm-5.85-9.18a4.59,4.59,0,0,0-4.5-4.75,4.41,4.41,0,0,0-4.43,4.75c0,2.86,1.86,4.76,4.43,4.76A4.56,4.56,0,0,0,141.1,25.22Z"/><path class="cls-6" d="M164,15.93l-.26,5.85h-1.06c-4.09,0-6.33,2.13-6.33,6.88V34.4h-5.85V16h5.85v3.51a7.11,7.11,0,0,1,6.33-3.77A5,5,0,0,1,164,15.93Z"/><path class="cls-6" d="M178.41,26.61l5.38,1.17A9.22,9.22,0,0,1,174.42,35c-5.48,0-10-3.91-10-9.73s4.54-9.73,10-9.73a9.34,9.34,0,0,1,9.37,7.06l-5.49,1.32a3.79,3.79,0,0,0-3.88-3.26A4.31,4.31,0,0,0,170,25.22a4.29,4.29,0,0,0,4.39,4.61A3.94,3.94,0,0,0,178.41,26.61Z"/><path class="cls-6" d="M205.12,25.22c0,5.82-4.61,9.7-10.06,9.7s-10.17-3.88-10.17-9.7,4.61-9.66,10.17-9.66S205.12,19.44,205.12,25.22Zm-5.64,0a4.49,4.49,0,1,0-9,0,4.49,4.49,0,1,0,9,0Z"/><path class="cls-6" d="M238.23,22.92V34.4h-5.82V24.16a3.11,3.11,0,0,0-3.07-3.4c-2.16,0-3.59,1.57-3.59,4.65v9H219.9V24.16a3.13,3.13,0,0,0-3.11-3.4c-2.12,0-3.51,1.57-3.51,4.65v9h-5.86V16h5.86v1.68a6.93,6.93,0,0,1,5.41-2.23,6.81,6.81,0,0,1,6,3.11,7.92,7.92,0,0,1,6.51-3.11C235.12,15.49,238.23,18.45,238.23,22.92Z"/><path class="cls-3" d="M362.63,16l-.26,5.85h-1.06c-4.1,0-6.33,2.12-6.33,6.88v5.74h-5.85V16.12H355v3.51a7.11,7.11,0,0,1,6.33-3.77A5,5,0,0,1,362.63,16Z"/><path class="cls-3" d="M267.26,22.1c0,7.7-5.36,12.38-12.42,12.38-7.91,0-13.6-5.83-13.6-13.06A13.06,13.06,0,0,1,254.45,8.28a12.87,12.87,0,0,1,11,5.76l-4.89,2.8A7.57,7.57,0,0,0,247,21.45c0,4.29,3,7.42,7.92,7.42,3.34,0,5.54-1.48,6.44-3.89h-6.73v-5h12.63Z"/><path class="cls-3" d="M288.79,16V34h-5.4V32.29A6.78,6.78,0,0,1,278,34.48c-4.72,0-8.6-4.14-8.6-9.5s3.88-9.5,8.6-9.5a6.75,6.75,0,0,1,5.36,2.19V16Zm-5.4,9a4.29,4.29,0,1,0-8.57,0,4.29,4.29,0,1,0,8.57,0Z"/><path class="cls-3" d="M306.24,33a9.91,9.91,0,0,1-5,1.36c-4.57,0-7.31-2.49-7.31-7.32v-7h-3.33V15.41h3.33V10h5.85v5.41h5.41v4.65h-5.41v6.36c0,1.91.91,2.68,2.45,2.68a6,6,0,0,0,2.67-.74Z"/><path class="cls-3" d="M347,26.25H333.53a4.24,4.24,0,0,0,7.86,1.43l5.2,1.06c-1.58,3.88-4.91,5.74-9.11,5.74a9.47,9.47,0,0,1-9.7-9.73A9.5,9.5,0,0,1,337.51,15c5.2,0,9.37,3.73,9.48,9.73Zm-13.35-3.58h7.57a3.67,3.67,0,0,0-3.7-2.89A4,4,0,0,0,333.64,22.67Z"/><path class="cls-3" d="M325.56,23.28v11h-5.4V24.07A3,3,0,0,0,317,20.79c-2,0-3.35,1.15-3.35,3.71v9.83h-5.4V9.13h5.4V18a6.19,6.19,0,0,1,5.15-2.2C322.47,15.82,325.56,18.42,325.56,23.28Z"/><path class="cls-7" d="M371.59,29h-1.84v5.53h-1.34V29h-1.83V27.67h5Z"/><path class="cls-7" d="M379,34.48h-1.33V30.06l-1.92,3.17h-.15l-1.92-3.16v4.41h-1.35V27.67h1.39l1.95,3.22,1.95-3.22H379Z"/></svg>