<svg id="Layer_1" data-name="Layer 1" xmlns="http://www.w3.org/2000/svg" viewBox="0 0 98.94 66.17" width="20px"><defs><style>.cls-1{fill:#ff8d6a;}.cls-2{fill:#52d3f4;}.cls-3{fill:#9c2af3;}.cls-4{fill:#3d3de8;}.cls-5{fill:#f73dfc;}</style></defs><path class="cls-1" d="M98.94,59.63c0,6.42-4.16,8.47-9.24,4.54L68.2,47.56,98.94,23.34Z"/><path class="cls-2" d="M9.24,64.17C4.16,68.1,0,66.05,0,59.63V23.34L30.74,47.56Z"/><path class="cls-3" d="M68.2,47.56l-11.39,9a12.49,12.49,0,0,1-14.68,0l-11.39-9L49.47,33.08Z"/><path class="cls-4" d="M9.24,2,49.47,33.08,30.74,47.56,0,23.34V6.54C0,.11,4.16-1.93,9.24,2Z"/><path class="cls-5" d="M89.7,2c5.08-3.93,9.24-1.89,9.24,4.54v16.8L68.2,47.56,49.47,33.08Z"/></svg>